{
	"asset":{
		"generator":"Khronos glTF Blender I/O v4.5.48",
		"version":"2.0"
	},
	"scene":0,
	"scenes":[
		{
			"name":"Scene",
			"nodes":[
				0,
				1
			]
		}
	],
	"nodes":[
		{
			"mesh":0,
			"name":"Body",
			"scale":[
				0,
				0,
				0
			]
		},
		{
			"name":"animation_exampleFCStd.001"
		}
	],
	"animations":[
		{
			"channels":[
				{
					"sampler":0,
					"target":{
						"node":0,
						"path":"translation"
					}
				},
				{
					"sampler":1,
					"target":{
						"node":0,
						"path":"rotation"
					}
				},
				{
					"sampler":2,
					"target":{
						"node":0,
						"path":"scale"
					}
				}
			],
			"name":"BodyAction",
			"samplers":[
				{
					"input":3,
					"interpolation":"LINEAR",
					"output":4
				},
				{
					"input":3,
					"interpolation":"LINEAR",
					"output":5
				},
				{
					"input":3,
					"interpolation":"LINEAR",
					"output":6
				}
			]
		}
	],
	"materials":[
		{
			"doubleSided":true,
			"name":"mat_0",
			"pbrMetallicRoughness":{
				"baseColorFactor":[
					0.41788509488105774,
					0.4620770215988159,
					0.5088813304901123,
					1
				]
			}
		}
	],
	"meshes":[
		{
			"name":"Body",
			"primitives":[
				{
					"attributes":{
						"POSITION":0,
						"NORMAL":1
					},
					"indices":2,
					"material":0
				}
			]
		}
	],
	"accessors":[
		{
			"bufferView":0,
			"componentType":5126,
			"count":3019,
			"max":[
				8.999999688540309e-18,
				0.02084767445921898,
				0.02433784306049347
			],
			"min":[
				-0.009999999776482582,
				-0.02409406565129757,
				-0.027746757492423058
			],
			"type":"VEC3"
		},
		{
			"bufferView":1,
			"componentType":5126,
			"count":3019,
			"type":"VEC3"
		},
		{
			"bufferView":2,
			"componentType":5123,
			"count":12450,
			"type":"SCALAR"
		},
		{
			"bufferView":3,
			"componentType":5126,
			"count":200,
			"max":[
				8.333333333333334
			],
			"min":[
				0.041666666666666664
			],
			"type":"SCALAR"
		},
		{
			"bufferView":4,
			"componentType":5126,
			"count":200,
			"type":"VEC3"
		},
		{
			"bufferView":5,
			"componentType":5126,
			"count":200,
			"type":"VEC4"
		},
		{
			"bufferView":6,
			"componentType":5126,
			"count":200,
			"type":"VEC3"
		}
	],
	"bufferViews":[
		{
			"buffer":0,
			"byteLength":36228,
			"byteOffset":0,
			"target":34962
		},
		{
			"buffer":0,
			"byteLength":36228,
			"byteOffset":36228,
			"target":34962
		},
		{
			"buffer":0,
			"byteLength":24900,
			"byteOffset":72456,
			"target":34963
		},
		{
			"buffer":0,
			"byteLength":800,
			"byteOffset":97356
		},
		{
			"buffer":0,
			"byteLength":2400,
			"byteOffset":98156
		},
		{
			"buffer":0,
			"byteLength":3200,
			"byteOffset":100556
		},
		{
			"buffer":0,
			"byteLength":2400,
			"byteOffset":103756
		}
	],
	"buffers":[
		{
			"byteLength":106156,
			"uri":"animated_object.bin"
		}
	]
}
