{
	"asset":{
		"generator":"Khronos glTF Blender I/O v4.5.48",
		"version":"2.0"
	},
	"scene":0,
	"scenes":[
		{
			"name":"Scene",
			"nodes":[
				0
			]
		}
	],
	"nodes":[
		{
			"mesh":0,
			"name":"bun_zipper"
		}
	],
	"meshes":[
		{
			"name":"bun_zipper",
			"primitives":[
				{
					"attributes":{
						"POSITION":0,
						"NORMAL":1
					},
					"indices":2
				}
			]
		}
	],
	"accessors":[
		{
			"bufferView":0,
			"componentType":5126,
			"count":207715,
			"max":[
				0.06100910156965256,
				0.05879969894886017,
				-0.03298740088939667
			],
			"min":[
				-0.09468989819288254,
				-0.061873599886894226,
				-0.1873210072517395
			],
			"type":"VEC3"
		},
		{
			"bufferView":1,
			"componentType":5126,
			"count":207715,
			"type":"VEC3"
		},
		{
			"bufferView":2,
			"componentType":5125,
			"count":208353,
			"type":"SCALAR"
		}
	],
	"bufferViews":[
		{
			"buffer":0,
			"byteLength":2492580,
			"byteOffset":0,
			"target":34962
		},
		{
			"buffer":0,
			"byteLength":2492580,
			"byteOffset":2492580,
			"target":34962
		},
		{
			"buffer":0,
			"byteLength":833412,
			"byteOffset":4985160,
			"target":34963
		}
	],
	"buffers":[
		{
			"byteLength":5818572,
			"uri":"bun_zipper.bin"
		}
	]
}
