{"accessors":[{"bufferView":0,"byteOffset":0,"componentType":5126,"count":3420,"max":[0.04233818382315597,-0.00887507458728148,0.042338183823155978],"min":[6.029311716559959e-18,-0.0273297334127185,7.071919374627357e-18],"type":"VEC3"},{"bufferView":0,"byteOffset":41040,"componentType":5126,"count":113,"max":[2.291876703675439e-17,-0.008875074587281488,0.042338183823155978],"min":[6.029311716559959e-18,-0.0273297334127185,0.023885308000000009],"type":"VEC3"},{"bufferView":0,"byteOffset":42396,"componentType":5126,"count":113,"max":[0.04233818382315597,-0.008875074587281483,1.1653296018579574e-17],"min":[0.023885308000000016,-0.02732973341271849,7.071919374627357e-18],"type":"VEC3"},{"bufferView":1,"byteOffset":0,"componentType":5126,"count":3420,"type":"VEC3"},{"bufferView":1,"byteOffset":41040,"componentType":5126,"count":113,"type":"VEC3"},{"bufferView":1,"byteOffset":42396,"componentType":5126,"count":113,"type":"VEC3"},{"bufferView":2,"byteOffset":0,"componentType":5123,"count":19662,"type":"SCALAR"},{"bufferView":2,"byteOffset":39324,"componentType":5123,"count":333,"type":"SCALAR"},{"bufferView":2,"byteOffset":39992,"componentType":5123,"count":333,"type":"SCALAR"}],"asset":{"generator":"Open CASCADE Technology 7.8 [dev.opencascade.org]","version":"2.0"},"bufferViews":[{"buffer":0,"byteLength":43752,"byteOffset":0,"byteStride":12,"target":34962},{"buffer":0,"byteLength":43752,"byteOffset":43752,"byteStride":12,"target":34962},{"buffer":0,"byteLength":40660,"byteOffset":87504,"target":34963}],"buffers":[{"byteLength":128164,"uri":"Unnamed-Common.bin"}],"materials":[{"name":"mat_0","pbrMetallicRoughness":{"baseColorFactor":[0.41788509488105776,0.4620770215988159,0.5088813304901123,1.0]},"doubleSided":true}],"meshes":[{"name":"Common","primitives":[{"attributes":{"NORMAL":3,"POSITION":0},"indices":6,"material":0,"mode":4},{"attributes":{"NORMAL":4,"POSITION":1},"indices":7,"material":0,"mode":4},{"attributes":{"NORMAL":5,"POSITION":2},"indices":8,"material":0,"mode":4}]}],"nodes":[{"mesh":0,"name":"Common"}],"scene":0,"scenes":[{"nodes":[0]}]}