{"accessors":[{"bufferView":0,"byteOffset":0,"componentType":5126,"count":10,"max":[0.0000025300000000000003,-0.000041770999999997,0.00000253000000001081],"min":[-0.0000025299999999997,-0.050041771,-0.00000252999999999969],"type":"VEC3"},{"bufferView":0,"byteOffset":120,"componentType":5126,"count":30,"max":[0.00260253,-0.050041771,0.0025835546261064194],"min":[-0.00260253,-0.050041771,-0.0025835546261063977],"type":"VEC3"},{"bufferView":0,"byteOffset":480,"componentType":5126,"count":54,"max":[0.00260253,-0.000041770999999996555,0.0025835546261064194],"min":[-0.00260253,-0.050041771,-0.002583554626106409],"type":"VEC3"},{"bufferView":0,"byteOffset":1128,"componentType":5126,"count":30,"max":[0.00260253,-0.000041770999999996555,0.0025835546261064085],"min":[-0.00260253,-0.00004177099999999769,-0.002583554626106409],"type":"VEC3"},{"bufferView":0,"byteOffset":1488,"componentType":5126,"count":10,"max":[0.02000253,-0.000041770999999997,0.00000253000000001081],"min":[0.01999747,-0.050041771,-0.00000252999999999969],"type":"VEC3"},{"bufferView":0,"byteOffset":1608,"componentType":5126,"count":30,"max":[0.022602530000000003,-0.050041771,0.0025835546261064194],"min":[0.017397469999999998,-0.050041771,-0.0025835546261063977],"type":"VEC3"},{"bufferView":0,"byteOffset":1968,"componentType":5126,"count":54,"max":[0.022602530000000003,-0.000041770999999996555,0.0025835546261064194],"min":[0.017397469999999998,-0.050041771,-0.002583554626106409],"type":"VEC3"},{"bufferView":0,"byteOffset":2616,"componentType":5126,"count":30,"max":[0.022602530000000003,-0.000041770999999996555,0.0025835546261064085],"min":[0.017397469999999998,-0.00004177099999999769,-0.002583554626106409],"type":"VEC3"},{"bufferView":0,"byteOffset":2976,"componentType":5126,"count":10,"max":[0.04000253,-0.000041770999999997,0.00000253000000001081],"min":[0.03999747,-0.050041771,-0.00000252999999999969],"type":"VEC3"},{"bufferView":0,"byteOffset":3096,"componentType":5126,"count":30,"max":[0.04260253,-0.050041771,0.0025835546261064194],"min":[0.03739747,-0.050041771,-0.0025835546261063977],"type":"VEC3"},{"bufferView":0,"byteOffset":3456,"componentType":5126,"count":54,"max":[0.04260253,-0.000041770999999996555,0.0025835546261064194],"min":[0.03739747,-0.050041771,-0.002583554626106409],"type":"VEC3"},{"bufferView":0,"byteOffset":4104,"componentType":5126,"count":30,"max":[0.04260253,-0.000041770999999996555,0.0025835546261064085],"min":[0.03739747,-0.00004177099999999769,-0.002583554626106409],"type":"VEC3"},{"bufferView":0,"byteOffset":4464,"componentType":5126,"count":10,"max":[0.06000253,-0.000041770999999997,0.00000253000000001081],"min":[0.059997470000000004,-0.050041771,-0.00000252999999999969],"type":"VEC3"},{"bufferView":0,"byteOffset":4584,"componentType":5126,"count":30,"max":[0.06260253,-0.050041771,0.0025835546261064194],"min":[0.05739747,-0.050041771,-0.0025835546261063977],"type":"VEC3"},{"bufferView":0,"byteOffset":4944,"componentType":5126,"count":54,"max":[0.06260253,-0.000041770999999996555,0.0025835546261064194],"min":[0.05739747,-0.050041771,-0.002583554626106409],"type":"VEC3"},{"bufferView":0,"byteOffset":5592,"componentType":5126,"count":30,"max":[0.06260253,-0.000041770999999996555,0.0025835546261064085],"min":[0.05739747,-0.00004177099999999769,-0.002583554626106409],"type":"VEC3"},{"bufferView":0,"byteOffset":5952,"componentType":5126,"count":10,"max":[0.08000252999999999,-0.000041770999999997,0.00000253000000001081],"min":[0.07999747000000001,-0.050041771,-0.00000252999999999969],"type":"VEC3"},{"bufferView":0,"byteOffset":6072,"componentType":5126,"count":30,"max":[0.08260253000000001,-0.050041771,0.0025835546261064194],"min":[0.07739747,-0.050041771,-0.0025835546261063977],"type":"VEC3"},{"bufferView":0,"byteOffset":6432,"componentType":5126,"count":54,"max":[0.08260253000000001,-0.000041770999999996555,0.0025835546261064194],"min":[0.07739747,-0.050041771,-0.002583554626106409],"type":"VEC3"},{"bufferView":0,"byteOffset":7080,"componentType":5126,"count":30,"max":[0.08260253000000001,-0.000041770999999996555,0.0025835546261064085],"min":[0.07739747,-0.00004177099999999769,-0.002583554626106409],"type":"VEC3"},{"bufferView":0,"byteOffset":7440,"componentType":5126,"count":4,"max":[-0.04578090257670429,0.005,0.025408932017135226],"min":[-0.04578090257670429,0.0,-0.024591067982864777],"type":"VEC3"},{"bufferView":0,"byteOffset":7488,"componentType":5126,"count":4,"max":[0.05421909742329572,0.005,-0.024591067982864777],"min":[-0.04578090257670429,0.0,-0.024591067982864777],"type":"VEC3"},{"bufferView":0,"byteOffset":7536,"componentType":5126,"count":4,"max":[0.05421909742329572,0.005,0.025408932017135226],"min":[-0.04578090257670429,0.0,0.025408932017135226],"type":"VEC3"},{"bufferView":0,"byteOffset":7584,"componentType":5126,"count":264,"max":[0.05421909742329572,0.0,0.025408932017135226],"min":[-0.04578090257670429,0.0,-0.024591067982864777],"type":"VEC3"},{"bufferView":0,"byteOffset":10752,"componentType":5126,"count":264,"max":[0.05421909742329572,0.005,0.025408932017135226],"min":[-0.04578090257670429,0.005,-0.024591067982864777],"type":"VEC3"},{"bufferView":0,"byteOffset":13920,"componentType":5126,"count":4,"max":[0.05421909742329572,0.005,0.025408932017135226],"min":[0.05421909742329572,0.0,-0.024591067982864777],"type":"VEC3"},{"bufferView":0,"byteOffset":13968,"componentType":5126,"count":54,"max":[-0.03317607071023958,0.005,0.014097754030186349],"min":[-0.039176070710239576,0.0,0.008141500785598024],"type":"VEC3"},{"bufferView":0,"byteOffset":14616,"componentType":5126,"count":54,"max":[-0.013176070710239579,0.005,0.014097754030186349],"min":[-0.01917607071023958,0.0,0.008141500785598024],"type":"VEC3"},{"bufferView":0,"byteOffset":15264,"componentType":5126,"count":54,"max":[0.006823929289760422,0.005,0.014097754030186349],"min":[0.0008239292897604221,0.0,0.008141500785598024],"type":"VEC3"},{"bufferView":0,"byteOffset":15912,"componentType":5126,"count":54,"max":[0.026823929289760424,0.005,0.014097754030186349],"min":[0.020823929289760422,0.0,0.008141500785598024],"type":"VEC3"},{"bufferView":0,"byteOffset":16560,"componentType":5126,"count":54,"max":[0.046823929289760424,0.005,0.014097754030186349],"min":[0.040823929289760426,0.0,0.008141500785598024],"type":"VEC3"},{"bufferView":0,"byteOffset":17208,"componentType":5126,"count":54,"max":[-0.03350700795000116,0.005,-0.010902245969813651],"min":[-0.03950700795000116,0.0,-0.016858499214401978],"type":"VEC3"},{"bufferView":0,"byteOffset":17856,"componentType":5126,"count":54,"max":[-0.01350700795000116,0.005,-0.010902245969813651],"min":[-0.01950700795000116,0.0,-0.016858499214401978],"type":"VEC3"},{"bufferView":0,"byteOffset":18504,"componentType":5126,"count":54,"max":[0.00649299204999884,0.005,-0.010902245969813651],"min":[0.00049299204999884,0.0,-0.016858499214401978],"type":"VEC3"},{"bufferView":0,"byteOffset":19152,"componentType":5126,"count":54,"max":[0.026492992049998842,0.005,-0.010902245969813651],"min":[0.02049299204999884,0.0,-0.016858499214401978],"type":"VEC3"},{"bufferView":0,"byteOffset":19800,"componentType":5126,"count":54,"max":[0.04649299204999884,0.005,-0.010902245969813651],"min":[0.040492992049998844,0.0,-0.016858499214401978],"type":"VEC3"},{"bufferView":1,"byteOffset":0,"componentType":5126,"count":10,"type":"VEC3"},{"bufferView":1,"byteOffset":120,"componentType":5126,"count":30,"type":"VEC3"},{"bufferView":1,"byteOffset":480,"componentType":5126,"count":54,"type":"VEC3"},{"bufferView":1,"byteOffset":1128,"componentType":5126,"count":30,"type":"VEC3"},{"bufferView":1,"byteOffset":1488,"componentType":5126,"count":10,"type":"VEC3"},{"bufferView":1,"byteOffset":1608,"componentType":5126,"count":30,"type":"VEC3"},{"bufferView":1,"byteOffset":1968,"componentType":5126,"count":54,"type":"VEC3"},{"bufferView":1,"byteOffset":2616,"componentType":5126,"count":30,"type":"VEC3"},{"bufferView":1,"byteOffset":2976,"componentType":5126,"count":10,"type":"VEC3"},{"bufferView":1,"byteOffset":3096,"componentType":5126,"count":30,"type":"VEC3"},{"bufferView":1,"byteOffset":3456,"componentType":5126,"count":54,"type":"VEC3"},{"bufferView":1,"byteOffset":4104,"componentType":5126,"count":30,"type":"VEC3"},{"bufferView":1,"byteOffset":4464,"componentType":5126,"count":10,"type":"VEC3"},{"bufferView":1,"byteOffset":4584,"componentType":5126,"count":30,"type":"VEC3"},{"bufferView":1,"byteOffset":4944,"componentType":5126,"count":54,"type":"VEC3"},{"bufferView":1,"byteOffset":5592,"componentType":5126,"count":30,"type":"VEC3"},{"bufferView":1,"byteOffset":5952,"componentType":5126,"count":10,"type":"VEC3"},{"bufferView":1,"byteOffset":6072,"componentType":5126,"count":30,"type":"VEC3"},{"bufferView":1,"byteOffset":6432,"componentType":5126,"count":54,"type":"VEC3"},{"bufferView":1,"byteOffset":7080,"componentType":5126,"count":30,"type":"VEC3"},{"bufferView":1,"byteOffset":7440,"componentType":5126,"count":4,"type":"VEC3"},{"bufferView":1,"byteOffset":7488,"componentType":5126,"count":4,"type":"VEC3"},{"bufferView":1,"byteOffset":7536,"componentType":5126,"count":4,"type":"VEC3"},{"bufferView":1,"byteOffset":7584,"componentType":5126,"count":264,"type":"VEC3"},{"bufferView":1,"byteOffset":10752,"componentType":5126,"count":264,"type":"VEC3"},{"bufferView":1,"byteOffset":13920,"componentType":5126,"count":4,"type":"VEC3"},{"bufferView":1,"byteOffset":13968,"componentType":5126,"count":54,"type":"VEC3"},{"bufferView":1,"byteOffset":14616,"componentType":5126,"count":54,"type":"VEC3"},{"bufferView":1,"byteOffset":15264,"componentType":5126,"count":54,"type":"VEC3"},{"bufferView":1,"byteOffset":15912,"componentType":5126,"count":54,"type":"VEC3"},{"bufferView":1,"byteOffset":16560,"componentType":5126,"count":54,"type":"VEC3"},{"bufferView":1,"byteOffset":17208,"componentType":5126,"count":54,"type":"VEC3"},{"bufferView":1,"byteOffset":17856,"componentType":5126,"count":54,"type":"VEC3"},{"bufferView":1,"byteOffset":18504,"componentType":5126,"count":54,"type":"VEC3"},{"bufferView":1,"byteOffset":19152,"componentType":5126,"count":54,"type":"VEC3"},{"bufferView":1,"byteOffset":19800,"componentType":5126,"count":54,"type":"VEC3"},{"bufferView":2,"byteOffset":0,"componentType":5123,"count":24,"type":"SCALAR"},{"bufferView":2,"byteOffset":48,"componentType":5123,"count":90,"type":"SCALAR"},{"bufferView":2,"byteOffset":228,"componentType":5123,"count":156,"type":"SCALAR"},{"bufferView":2,"byteOffset":540,"componentType":5123,"count":90,"type":"SCALAR"},{"bufferView":2,"byteOffset":720,"componentType":5123,"count":24,"type":"SCALAR"},{"bufferView":2,"byteOffset":768,"componentType":5123,"count":90,"type":"SCALAR"},{"bufferView":2,"byteOffset":948,"componentType":5123,"count":156,"type":"SCALAR"},{"bufferView":2,"byteOffset":1260,"componentType":5123,"count":90,"type":"SCALAR"},{"bufferView":2,"byteOffset":1440,"componentType":5123,"count":24,"type":"SCALAR"},{"bufferView":2,"byteOffset":1488,"componentType":5123,"count":90,"type":"SCALAR"},{"bufferView":2,"byteOffset":1668,"componentType":5123,"count":156,"type":"SCALAR"},{"bufferView":2,"byteOffset":1980,"componentType":5123,"count":90,"type":"SCALAR"},{"bufferView":2,"byteOffset":2160,"componentType":5123,"count":24,"type":"SCALAR"},{"bufferView":2,"byteOffset":2208,"componentType":5123,"count":90,"type":"SCALAR"},{"bufferView":2,"byteOffset":2388,"componentType":5123,"count":156,"type":"SCALAR"},{"bufferView":2,"byteOffset":2700,"componentType":5123,"count":90,"type":"SCALAR"},{"bufferView":2,"byteOffset":2880,"componentType":5123,"count":24,"type":"SCALAR"},{"bufferView":2,"byteOffset":2928,"componentType":5123,"count":90,"type":"SCALAR"},{"bufferView":2,"byteOffset":3108,"componentType":5123,"count":156,"type":"SCALAR"},{"bufferView":2,"byteOffset":3420,"componentType":5123,"count":90,"type":"SCALAR"},{"bufferView":2,"byteOffset":3600,"componentType":5123,"count":6,"type":"SCALAR"},{"bufferView":2,"byteOffset":3612,"componentType":5123,"count":6,"type":"SCALAR"},{"bufferView":2,"byteOffset":3624,"componentType":5123,"count":6,"type":"SCALAR"},{"bufferView":2,"byteOffset":3636,"componentType":5123,"count":846,"type":"SCALAR"},{"bufferView":2,"byteOffset":5328,"componentType":5123,"count":846,"type":"SCALAR"},{"bufferView":2,"byteOffset":7020,"componentType":5123,"count":6,"type":"SCALAR"},{"bufferView":2,"byteOffset":7032,"componentType":5123,"count":156,"type":"SCALAR"},{"bufferView":2,"byteOffset":7344,"componentType":5123,"count":156,"type":"SCALAR"},{"bufferView":2,"byteOffset":7656,"componentType":5123,"count":156,"type":"SCALAR"},{"bufferView":2,"byteOffset":7968,"componentType":5123,"count":156,"type":"SCALAR"},{"bufferView":2,"byteOffset":8280,"componentType":5123,"count":156,"type":"SCALAR"},{"bufferView":2,"byteOffset":8592,"componentType":5123,"count":156,"type":"SCALAR"},{"bufferView":2,"byteOffset":8904,"componentType":5123,"count":156,"type":"SCALAR"},{"bufferView":2,"byteOffset":9216,"componentType":5123,"count":156,"type":"SCALAR"},{"bufferView":2,"byteOffset":9528,"componentType":5123,"count":156,"type":"SCALAR"},{"bufferView":2,"byteOffset":9840,"componentType":5123,"count":156,"type":"SCALAR"}],"asset":{"generator":"Open CASCADE Technology 7.8 [dev.opencascade.org]","version":"2.0"},"bufferViews":[{"buffer":0,"byteLength":20448,"byteOffset":0,"byteStride":12,"target":34962},{"buffer":0,"byteLength":20448,"byteOffset":20448,"byteStride":12,"target":34962},{"buffer":0,"byteLength":10152,"byteOffset":40896,"target":34963}],"buffers":[{"byteLength":51048,"uri":"electr_cell.bin"}],"materials":[{"name":"mat_0","pbrMetallicRoughness":{"baseColorFactor":[0.41788509488105774,0.4620770215988159,0.5088813304901123,1.0]},"doubleSided":true},{"name":"mat_1","pbrMetallicRoughness":{"baseColorFactor":[0.6038273572921753,0.6038273572921753,0.791297972202301,1.0]},"doubleSided":true}],"meshes":[{"name":"Body001","primitives":[{"attributes":{"NORMAL":36,"POSITION":0},"indices":72,"material":0,"mode":4},{"attributes":{"NORMAL":37,"POSITION":1},"indices":73,"material":0,"mode":4},{"attributes":{"NORMAL":38,"POSITION":2},"indices":74,"material":0,"mode":4},{"attributes":{"NORMAL":39,"POSITION":3},"indices":75,"material":0,"mode":4},{"attributes":{"NORMAL":40,"POSITION":4},"indices":76,"material":0,"mode":4},{"attributes":{"NORMAL":41,"POSITION":5},"indices":77,"material":0,"mode":4},{"attributes":{"NORMAL":42,"POSITION":6},"indices":78,"material":0,"mode":4},{"attributes":{"NORMAL":43,"POSITION":7},"indices":79,"material":0,"mode":4},{"attributes":{"NORMAL":44,"POSITION":8},"indices":80,"material":0,"mode":4},{"attributes":{"NORMAL":45,"POSITION":9},"indices":81,"material":0,"mode":4},{"attributes":{"NORMAL":46,"POSITION":10},"indices":82,"material":0,"mode":4},{"attributes":{"NORMAL":47,"POSITION":11},"indices":83,"material":0,"mode":4},{"attributes":{"NORMAL":48,"POSITION":12},"indices":84,"material":0,"mode":4},{"attributes":{"NORMAL":49,"POSITION":13},"indices":85,"material":0,"mode":4},{"attributes":{"NORMAL":50,"POSITION":14},"indices":86,"material":0,"mode":4},{"attributes":{"NORMAL":51,"POSITION":15},"indices":87,"material":0,"mode":4},{"attributes":{"NORMAL":52,"POSITION":16},"indices":88,"material":0,"mode":4},{"attributes":{"NORMAL":53,"POSITION":17},"indices":89,"material":0,"mode":4},{"attributes":{"NORMAL":54,"POSITION":18},"indices":90,"material":0,"mode":4},{"attributes":{"NORMAL":55,"POSITION":19},"indices":91,"material":0,"mode":4}]},{"name":"Body","primitives":[{"attributes":{"NORMAL":56,"POSITION":20},"indices":92,"material":1,"mode":4},{"attributes":{"NORMAL":57,"POSITION":21},"indices":93,"material":1,"mode":4},{"attributes":{"NORMAL":58,"POSITION":22},"indices":94,"material":1,"mode":4},{"attributes":{"NORMAL":59,"POSITION":23},"indices":95,"material":1,"mode":4},{"attributes":{"NORMAL":60,"POSITION":24},"indices":96,"material":1,"mode":4},{"attributes":{"NORMAL":61,"POSITION":25},"indices":97,"material":1,"mode":4},{"attributes":{"NORMAL":62,"POSITION":26},"indices":98,"material":1,"mode":4},{"attributes":{"NORMAL":63,"POSITION":27},"indices":99,"material":1,"mode":4},{"attributes":{"NORMAL":64,"POSITION":28},"indices":100,"material":1,"mode":4},{"attributes":{"NORMAL":65,"POSITION":29},"indices":101,"material":1,"mode":4},{"attributes":{"NORMAL":66,"POSITION":30},"indices":102,"material":1,"mode":4},{"attributes":{"NORMAL":67,"POSITION":31},"indices":103,"material":1,"mode":4},{"attributes":{"NORMAL":68,"POSITION":32},"indices":104,"material":1,"mode":4},{"attributes":{"NORMAL":69,"POSITION":33},"indices":105,"material":1,"mode":4},{"attributes":{"NORMAL":70,"POSITION":34},"indices":106,"material":1,"mode":4},{"attributes":{"NORMAL":71,"POSITION":35},"indices":107,"material":1,"mode":4}]}],"nodes":[{"children":[1,2],"name":"electr_cell"},{"mesh":0,"name":"Body001"},{"mesh":1,"name":"Body"}],"scene":0,"scenes":[{"nodes":[0]}]}